HIERARCHY
ROOT hip
{
	OFFSET 0.000000 0.000000 0.000000 
	CHANNELS 6 Xposition Yposition Zposition Xrotation Zrotation Yrotation
	JOINT abdomen
	{
		OFFSET 0.000000 3.402643 0.000000 
		CHANNELS 3 Xrotation Zrotation Yrotation
		JOINT chest
		{
			OFFSET 0.000000 8.438565 -0.680529 
			CHANNELS 3 Xrotation Zrotation Yrotation
			JOINT neck
			{
				OFFSET 0.000000 10.207942 -0.272212 
				CHANNELS 3 Xrotation Zrotation Yrotation
				JOINT head
				{
					OFFSET 0.000000 3.130431 0.000000 
					CHANNELS 3 Xrotation Zrotation Yrotation
					End Site
					{
						OFFSET 0.000000 3.130435 0.000000 
					}
				}
			}
			JOINT lCollar
			{
				OFFSET 3.470700 6.669187 -0.816635 
				CHANNELS 3 Yrotation Zrotation Xrotation
				JOINT lShldr
				{
					OFFSET 3.198488 0.000000 0.000000 
					CHANNELS 3 Zrotation Yrotation Xrotation
					JOINT lForeArm
					{
						OFFSET 10.139888 0.000000 0.000000 
						CHANNELS 3 Yrotation Zrotation Xrotation
						JOINT lHand
						{
							OFFSET 8.370511 0.000000 0.000000 
							CHANNELS 3 Zrotation Yrotation Xrotation
							End Site
							{
								OFFSET 4.083176 0.000000 0.000000 
							}
						}
					}
				}
			}
			JOINT rCollar
			{
				OFFSET -3.470700 6.669187 -0.816635 
				CHANNELS 3 Yrotation Zrotation Xrotation
				JOINT rShldr
				{
					OFFSET -3.198488 0.000000 0.000000 
					CHANNELS 3 Zrotation Yrotation Xrotation
					JOINT rForeArm
					{
						OFFSET -10.139888 0.000000 0.000000 
						CHANNELS 3 Yrotation Zrotation Xrotation
						JOINT rHand
						{
							OFFSET -8.370511 0.000000 0.000000 
							CHANNELS 3 Zrotation Yrotation Xrotation
							End Site
							{
								OFFSET -4.083176 0.000000 0.000000 
							}
						}
					}
				}
			}
		}
	}
	JOINT lThigh
	{
		OFFSET 5.308129 -1.633274 1.361059 
		CHANNELS 3 Xrotation Zrotation Yrotation
		JOINT lShin
		{
			OFFSET -2.041588 -20.007561 0.000000 
			CHANNELS 3 Xrotation Zrotation Yrotation
			JOINT lFoot
			{
				OFFSET 0.000000 -19.190928 -1.224953 
				CHANNELS 3 Xrotation Yrotation Zrotation
				End Site
				{
					OFFSET 0.000000 -2.449906 4.627600 
				}
			}
		}
	}
	JOINT rThigh
	{
		OFFSET -5.308129 -1.633274 1.361059 
		CHANNELS 3 Xrotation Zrotation Yrotation
		JOINT rShin
		{
			OFFSET 2.041588 -20.007561 0.000000 
			CHANNELS 3 Xrotation Zrotation Yrotation
			JOINT rFoot
			{
				OFFSET 0.000000 -19.190928 -1.224953 
				CHANNELS 3 Xrotation Yrotation Zrotation
				End Site
				{
					OFFSET 0.000000 -2.449906 4.627600 
				}
			}
		}
	}
}
MOTION
Frames: 11
Frame Time: 0.011111
45.544178 48.081459 -35.147141 -0.312234 -2.765378 -97.791702 28.746651 8.062623 -6.313006 -29.012875 1.555091 -2.641115 0.005366 13.567283 12.712965 -14.226829 -29.807451 30.440720 -1.931697 -12.150426 0.122601 -28.628574 -9.550047 88.522911 -64.810600 9.451322 14.586843 8.524705 12.647240 -49.827526 4.400109 13.372850 -0.765886 29.792671 13.789340 64.174774 74.193016 -8.454524 19.216137 -8.534408 -12.637552 9.564311 -12.177945 17.636509 29.307232 60.395046 -2.695380 -8.180663 -40.311359 -3.360500 -2.343420 -16.883051 -10.808754 -15.744881 59.995472 2.734422 8.112631 -38.350773 12.447665 10.054252 
45.523441 48.140881 -35.204399 0.100148 -3.040102 -97.749191 29.003517 8.308265 -6.200877 -29.022488 1.504916 -2.644034 0.086408 13.670802 12.580791 -14.302567 -29.763140 30.152065 -1.931697 -12.150426 0.122601 -28.207973 -10.329219 88.877457 -65.025787 9.456573 14.704501 8.524705 12.647240 -50.003307 4.400109 13.372850 -0.765886 29.957001 13.376780 64.636978 74.345451 -8.417747 19.292736 -8.534408 -12.637552 9.935406 -11.884416 18.148212 29.354702 60.483109 -2.690617 -8.184954 -40.488323 -3.711255 -2.621364 -16.228266 -10.280837 -15.921241 59.897610 2.754034 8.105957 -38.302078 12.699703 10.269050 
45.520344 48.106522 -35.241539 0.440378 -3.193001 -97.717621 29.074940 8.641213 -6.129396 -29.149122 1.475459 -2.673499 -0.084091 13.383596 12.450861 -13.895198 -29.307587 29.713768 -1.931697 -12.150426 0.122601 -28.044788 -10.930251 88.869949 -65.259026 9.451165 14.806994 8.524705 12.647240 -50.413467 4.400109 13.372850 -0.765886 29.924595 13.072124 65.397079 74.398529 -8.409213 19.328733 -8.534408 -12.637552 10.140484 -11.806469 18.539749 29.225420 60.551514 -2.690524 -8.190338 -40.657486 -3.706074 -2.577244 -15.937010 -9.872707 -16.006832 59.917049 2.744399 8.111875 -38.172089 12.473134 10.065502 
45.507034 48.085171 -35.265678 0.525503 -3.294692 -97.717613 28.909311 8.642210 -6.210119 -29.236700 1.391207 -2.683571 -0.142050 13.328446 12.296005 -13.380920 -28.846210 29.201366 -1.931697 -12.150426 0.122601 -27.616663 -11.328351 88.728767 -65.866219 9.441159 15.093221 8.524705 12.647240 -50.852921 4.400109 13.372850 -0.765886 29.998625 12.743242 66.342049 74.459618 -8.394198 19.355433 -8.534408 -12.637552 10.462749 -11.660103 18.573503 29.124336 60.502834 -2.681252 -8.181715 -40.760742 -3.422028 -2.321990 -15.839178 -9.755318 -15.997724 59.917049 2.744385 8.111866 -38.180138 11.975903 9.626689 
45.482895 48.069695 -35.293224 0.437651 -3.300793 -97.669151 28.550877 8.386180 -6.223281 -29.470606 1.005235 -2.621952 -0.160145 13.569684 12.015306 -12.661821 -28.476217 28.423174 -1.931697 -12.150426 0.122601 -26.558096 -11.787157 89.220963 -66.694443 9.411592 15.483830 8.524705 12.647240 -50.706425 4.400109 13.372850 -0.765886 30.348965 12.065938 67.153893 74.632896 -8.352563 19.445368 -8.534408 -12.637552 10.941265 -11.591416 18.451233 29.056503 60.453983 -2.681159 -8.177774 -40.964905 -3.336723 -2.220881 -15.856228 -9.791467 -15.945563 60.005581 2.734417 8.103792 -38.316833 11.560014 9.301350 
45.454113 48.072796 -35.333149 0.412959 -3.351875 -97.503494 28.331799 8.256457 -5.899368 -30.447075 0.158374 -2.462265 -0.128968 13.695677 11.622668 -11.375326 -27.797020 27.207006 -1.931697 -12.150426 0.122601 -25.033382 -11.999868 90.311752 -67.586136 9.367226 15.911533 8.524705 12.647240 -50.520885 4.400109 13.372850 -0.765886 30.913822 10.577955 67.861771 74.875366 -8.290154 19.573404 -8.534408 -12.637552 11.214702 -11.464710 18.462044 29.050957 60.307285 -2.728683 -8.163504 -41.082355 -3.595266 -2.417326 -15.738858 -9.742490 -15.922396 60.024448 2.734504 8.124636 -38.366093 11.346074 9.117830 
45.406143 48.109005 -35.368122 0.102006 -3.528652 -97.310593 27.812227 7.837835 -6.648329 -28.855904 1.233605 -2.659197 -1.016033 12.910094 11.674586 -11.757296 -27.776436 27.508314 -1.931697 -12.150426 0.122601 -25.734484 -13.532896 88.746330 -68.242180 9.321200 16.218445 8.524705 12.647240 -50.266979 4.400109 13.372850 -0.765886 29.721411 11.967362 68.701263 75.179398 -8.212400 19.737474 -8.534408 -12.637552 12.113139 -11.044486 18.115845 29.231667 60.043407 -2.730059 -8.143213 -40.957039 -3.668067 -2.511665 -15.533566 -10.044933 -15.858643 59.965607 2.743056 8.124662 -38.374245 11.178377 9.002531 
45.338673 48.162544 -35.391338 -0.317917 -3.769520 -97.042679 27.589214 7.225901 -6.431149 -30.203295 0.061293 -2.453588 -0.544466 13.723348 11.259822 -10.609605 -27.764122 26.378208 -1.931697 -12.150426 0.122601 -23.542360 -13.514441 90.219986 -69.299400 9.232518 16.738911 8.524705 12.647240 -50.100964 4.400109 13.372850 -0.765886 30.730585 10.021426 69.016167 75.401764 -8.153230 19.852993 -8.534408 -12.637552 12.259625 -10.507549 17.551844 29.309134 59.681545 -2.769166 -8.116507 -40.701492 -3.539302 -2.433648 -15.240519 -10.552261 -15.961166 59.780090 2.763935 8.102008 -38.344398 11.152692 8.952180 
45.267174 48.228161 -35.424450 -0.260984 -3.980275 -96.784058 27.126719 7.229562 -7.089813 -28.962891 1.097391 -2.682069 -1.175634 13.308556 11.365883 -10.894174 -28.390934 26.845779 -1.931697 -12.150426 0.122601 -24.110949 -14.613382 88.495575 -70.120354 9.144309 17.145950 8.524705 12.647240 -50.013073 4.400109 13.372850 -0.765886 29.467213 11.290482 69.669075 75.564880 -8.111762 19.939957 -8.534408 -12.637552 12.816266 -10.078178 17.564489 29.340973 59.417610 -2.812281 -8.089626 -40.447601 -3.372959 -2.360935 -14.704115 -10.426029 -16.063288 59.525597 2.793185 8.087985 -38.478878 10.953238 8.794680 
45.201252 48.320080 -35.460354 -0.058533 -4.153755 -96.597771 26.725317 7.348612 -7.206769 -28.368004 1.577565 -2.750579 -1.521059 12.688083 11.347163 -11.131026 -28.215158 26.820007 -1.931697 -12.150426 0.122601 -24.074492 -15.579583 87.592361 -71.135941 9.009970 17.646385 8.524705 12.647240 -49.915417 4.400109 13.372850 -0.765886 28.532967 11.774952 70.119713 75.766754 -8.056885 20.052931 -8.534408 -12.637552 13.304546 -9.638969 17.715054 29.434462 59.046078 -2.855234 -8.054309 -40.213070 -3.464190 -2.464798 -14.067714 -10.013880 -15.996090 59.076553 2.850360 8.025109 -38.466309 10.814646 8.698685 
45.148018 48.301510 -35.477688 0.035621 -4.304677 -96.330963 26.249367 7.348335 -7.163416 -28.241173 1.555878 -2.733583 -1.764995 12.514697 11.144536 -10.827260 -28.151432 26.343500 -1.931697 -12.150426 0.122601 -23.357222 -16.420902 87.430489 -72.200340 8.845941 18.182957 8.524705 12.647240 -49.886120 4.400109 13.372850 -0.765886 28.105482 11.696811 70.343384 75.896767 -8.019440 20.127192 -8.534408 -12.637552 13.626811 -9.365271 17.781178 29.394060 58.684181 -2.890292 -8.024575 -39.929276 -3.666077 -2.648670 -13.562463 -9.792419 -15.991215 58.665615 2.890738 7.994455 -38.402573 10.793553 8.659820 
